<svg xmlns="http://www.w3.org/2000/svg" viewBox="0 0 234.28 188.71"><defs><style>.cls-1{fill:#231f20;}</style></defs><title>hat1Asset 11</title><g id="Layer_2" data-name="Layer 2"><g id="Layer_1-2" data-name="Layer 1"><path class="cls-1" d="M97.72,0S81,1.38,74.62,7.83s-35.24,18-40.18,18.89S.41,174.47,0,184.14l25.09,4.57L53.8,71.85s-4.12,76.47,0,88.44-3.71,18-3.71,18S85.53,193,87.18,187.47s-.82-33.17,2.88-38.23-5.77-78.31-.82-93.05S97.72,0,97.72,0Z"/><path class="cls-1" d="M136.56,0s16.7,1.38,23.1,7.83,35.24,18,40.19,18.89,34,147.75,34.43,157.42l-25.09,4.57L180.48,71.85s4.12,76.47,0,88.44,3.71,18,3.71,18S148.75,193,147.1,187.47s.83-33.17-2.88-38.23S150,70.93,145,56.19,136.56,0,136.56,0Z"/></g></g></svg>