{
  "buffers": [{ "uri": "sword.bin", "byteLength": 460740 }],
  "asset": { "version": "2.0", "generator": "gltfpack 0.16" },
  "bufferViews": [
    {
      "buffer": 0,
      "byteOffset": 0,
      "byteLength": 186912,
      "byteStride": 12,
      "target": 34962
    },
    {
      "buffer": 0,
      "byteOffset": 186912,
      "byteLength": 186912,
      "byteStride": 12,
      "target": 34962
    },
    { "buffer": 0, "byteOffset": 373824, "byteLength": 86916, "target": 34963 }
  ],
  "accessors": [
    {
      "bufferView": 0,
      "byteOffset": 0,
      "componentType": 5126,
      "count": 1306,
      "type": "VEC3",
      "min": [-5.36575985, -2, -4.99338007],
      "max": [5, 0, 5]
    },
    {
      "bufferView": 1,
      "byteOffset": 0,
      "componentType": 5126,
      "count": 1306,
      "type": "VEC3"
    },
    {
      "bufferView": 2,
      "byteOffset": 0,
      "componentType": 5123,
      "count": 3726,
      "type": "SCALAR"
    },
    {
      "bufferView": 0,
      "byteOffset": 15672,
      "componentType": 5126,
      "count": 2004,
      "type": "VEC3",
      "min": [-2.49998999, -1.5, 0],
      "max": [2.49998999, 9.69999027, 2]
    },
    {
      "bufferView": 1,
      "byteOffset": 15672,
      "componentType": 5126,
      "count": 2004,
      "type": "VEC3"
    },
    {
      "bufferView": 2,
      "byteOffset": 7452,
      "componentType": 5123,
      "count": 5520,
      "type": "SCALAR"
    },
    {
      "bufferView": 0,
      "byteOffset": 39720,
      "componentType": 5126,
      "count": 1378,
      "type": "VEC3",
      "min": [-2.49998999, 9.30000019, 0],
      "max": [2.49998999, 18, 2]
    },
    {
      "bufferView": 1,
      "byteOffset": 39720,
      "componentType": 5126,
      "count": 1378,
      "type": "VEC3"
    },
    {
      "bufferView": 2,
      "byteOffset": 18492,
      "componentType": 5123,
      "count": 3906,
      "type": "SCALAR"
    },
    {
      "bufferView": 0,
      "byteOffset": 56256,
      "componentType": 5126,
      "count": 2029,
      "type": "VEC3",
      "min": [-2.38262033, -23.1605053, -0.848978937],
      "max": [3.26375699, -1.29999912, 0.851021051]
    },
    {
      "bufferView": 1,
      "byteOffset": 56256,
      "componentType": 5126,
      "count": 2029,
      "type": "VEC3"
    },
    {
      "bufferView": 2,
      "byteOffset": 26304,
      "componentType": 5123,
      "count": 5514,
      "type": "SCALAR"
    },
    {
      "bufferView": 0,
      "byteOffset": 80604,
      "componentType": 5126,
      "count": 2353,
      "type": "VEC3",
      "min": [3.98740792, -88.2875671, -0.848978937],
      "max": [12.1770096, -66.2480087, 0.851021051]
    },
    {
      "bufferView": 1,
      "byteOffset": 80604,
      "componentType": 5126,
      "count": 2353,
      "type": "VEC3"
    },
    {
      "bufferView": 2,
      "byteOffset": 37332,
      "componentType": 5123,
      "count": 6900,
      "type": "SCALAR"
    },
    {
      "bufferView": 0,
      "byteOffset": 108840,
      "componentType": 5126,
      "count": 1543,
      "type": "VEC3",
      "min": [0.924785793, -66.2653275, -0.848978937],
      "max": [8.03609085, -46.1625786, 0.851021051]
    },
    {
      "bufferView": 1,
      "byteOffset": 108840,
      "componentType": 5126,
      "count": 1543,
      "type": "VEC3"
    },
    {
      "bufferView": 2,
      "byteOffset": 51132,
      "componentType": 5123,
      "count": 4278,
      "type": "SCALAR"
    },
    {
      "bufferView": 0,
      "byteOffset": 127356,
      "componentType": 5126,
      "count": 1444,
      "type": "VEC3",
      "min": [-1.37806058, -46.1811256, -0.848978937],
      "max": [5.26008606, -23.1406479, 0.851021051]
    },
    {
      "bufferView": 1,
      "byteOffset": 127356,
      "componentType": 5126,
      "count": 1444,
      "type": "VEC3"
    },
    {
      "bufferView": 2,
      "byteOffset": 59688,
      "componentType": 5123,
      "count": 3702,
      "type": "SCALAR"
    },
    {
      "bufferView": 0,
      "byteOffset": 144684,
      "componentType": 5126,
      "count": 1495,
      "type": "VEC3",
      "min": [-2.49998999, 9.30000019, -2],
      "max": [2.49998999, 18, 0.200000003]
    },
    {
      "bufferView": 1,
      "byteOffset": 144684,
      "componentType": 5126,
      "count": 1495,
      "type": "VEC3"
    },
    {
      "bufferView": 2,
      "byteOffset": 67092,
      "componentType": 5123,
      "count": 4284,
      "type": "SCALAR"
    },
    {
      "bufferView": 0,
      "byteOffset": 162624,
      "componentType": 5126,
      "count": 2024,
      "type": "VEC3",
      "min": [-2.49998999, -1.5, -2],
      "max": [2.49998999, 9.30000019, 0.200000003]
    },
    {
      "bufferView": 1,
      "byteOffset": 162624,
      "componentType": 5126,
      "count": 2024,
      "type": "VEC3"
    },
    {
      "bufferView": 2,
      "byteOffset": 75660,
      "componentType": 5123,
      "count": 5628,
      "type": "SCALAR"
    }
  ],
  "materials": [
    {
      "pbrMetallicRoughness": {
        "baseColorFactor": [0.188235298, 0.23137255, 0.588235319, 1],
        "metallicFactor": 0
      },
      "doubleSided": true
    },
    {
      "pbrMetallicRoughness": {
        "baseColorFactor": [0.768627465, 0.20784314, 0.152941182, 1],
        "metallicFactor": 0
      },
      "doubleSided": true
    },
    {
      "pbrMetallicRoughness": {
        "baseColorFactor": [0.964705884, 0.964705884, 0.952941179, 1],
        "metallicFactor": 0
      },
      "doubleSided": true
    },
    {
      "pbrMetallicRoughness": {
        "baseColorFactor": [0.956862748, 0.898039222, 0.654901981, 1],
        "metallicFactor": 0
      },
      "doubleSided": true
    },
    {
      "pbrMetallicRoughness": {
        "baseColorFactor": [0.749019623, 0.741176486, 0.733333349, 1],
        "metallicFactor": 0
      },
      "doubleSided": true
    }
  ],
  "meshes": [
    {
      "primitives": [
        {
          "attributes": { "POSITION": 0, "NORMAL": 1 },
          "mode": 4,
          "indices": 2,
          "material": 0
        }
      ]
    },
    {
      "primitives": [
        {
          "attributes": { "POSITION": 3, "NORMAL": 4 },
          "mode": 4,
          "indices": 5,
          "material": 1
        }
      ]
    },
    {
      "primitives": [
        {
          "attributes": { "POSITION": 6, "NORMAL": 7 },
          "mode": 4,
          "indices": 8,
          "material": 2
        }
      ]
    },
    {
      "primitives": [
        {
          "attributes": { "POSITION": 9, "NORMAL": 10 },
          "mode": 4,
          "indices": 11,
          "material": 3
        }
      ]
    },
    {
      "primitives": [
        {
          "attributes": { "POSITION": 12, "NORMAL": 13 },
          "mode": 4,
          "indices": 14,
          "material": 4
        }
      ]
    },
    {
      "primitives": [
        {
          "attributes": { "POSITION": 15, "NORMAL": 16 },
          "mode": 4,
          "indices": 17,
          "material": 3
        }
      ]
    },
    {
      "primitives": [
        {
          "attributes": { "POSITION": 18, "NORMAL": 19 },
          "mode": 4,
          "indices": 20,
          "material": 4
        }
      ]
    },
    {
      "primitives": [
        {
          "attributes": { "POSITION": 21, "NORMAL": 22 },
          "mode": 4,
          "indices": 23,
          "material": 2
        }
      ]
    },
    {
      "primitives": [
        {
          "attributes": { "POSITION": 24, "NORMAL": 25 },
          "mode": 4,
          "indices": 26,
          "material": 1
        }
      ]
    }
  ],
  "nodes": [
    { "mesh": 0 },
    { "mesh": 1 },
    { "mesh": 2 },
    { "mesh": 3 },
    { "mesh": 4 },
    { "mesh": 5 },
    { "mesh": 6 },
    { "mesh": 7 },
    { "mesh": 8 },
    { "name": "guard", "children": [0] },
    { "name": "top", "children": [1] },
    { "name": "battery", "children": [2] },
    { "name": "sword_for_3db2 v5", "children": [3] },
    { "name": "sword_for_3db2 v5", "children": [4] },
    { "name": "sword_for_3db2 v5", "children": [5] },
    { "name": "sword_for_3db2 v5", "children": [6] },
    { "name": "bottom (1)", "children": [7] },
    { "name": "bottom (2)", "children": [8] }
  ],
  "scenes": [{ "nodes": [9, 10, 11, 12, 13, 14, 15, 16, 17] }]
}
