<svg xmlns="http://www.w3.org/2000/svg" viewBox="0 0 92.18 137.33"><defs><style>.cls-1{fill:#be1e2d;}</style></defs><title>Asset 87</title><g id="Layer_2" data-name="Layer 2"><g id="Layer_1-2" data-name="Layer 1"><path class="cls-1" d="M92.18,0H55.53L55.3,1.71A230.22,230.22,0,0,1,47.13,40L47,39.74c-5.09-9.13-8-37.68-8-38L38.78,0H0V137.33H92.18V2m0,0V0m-30,2h28V87.81H34.61C55.36,65.2,61.33,11,62.19,2Zm-5,0h1.85c-4.52,58.19-24.59,80.9-29.76,85.84H23.63S48.77,66.18,57.23,2ZM37,2S40,31.11,45.31,40.7c0,0-1.08,3.93-3.1,9.56-3.66-10.6-7.82-42-8.64-48.29ZM2,2H30.61c4.72,34.56,8.47,47.8,10.09,52.33-4.51,11.64-12.13,27.43-22,33.51H2ZM90.23,135.28H2V89.86H90.23Z"/></g></g></svg>