<svg xmlns="http://www.w3.org/2000/svg" viewBox="0 0 67.42 52.55"><defs><style>.cls-1{fill:#be1e2d;}</style></defs><title>Asset 88</title><g id="Layer_2" data-name="Layer 2"><g id="Layer_1-2" data-name="Layer 1"><path class="cls-1" d="M23,24.72A74.46,74.46,0,0,1,0,32.53s5.65,19.77,22.9,20c17.26-.25,23.14-20,23.14-20A74.46,74.46,0,0,1,23,24.72ZM22.9,50.55C10.58,50.36,4.65,39,2.69,34.11A77.32,77.32,0,0,0,23,27a77.23,77.23,0,0,0,20.3,7.11C41.28,39,35.19,50.36,22.9,50.55Z"/><path class="cls-1" d="M67.42,4.6c-5.91-7-20.69-4.1-23.83-3.38L43.48,1C22.77,10.13,2.33,1,2.33,1L.17,5.75c23.16,7.44,45.47,0,45.47,0A20.1,20.1,0,0,0,44,2.06C57,9.12,61.9,22.66,61.9,22.66l4.34-6.24C65.58,8.77,59.33,5,53.48,3.23A47.24,47.24,0,0,1,66.29,9ZM22.25,8.06A71.62,71.62,0,0,1,1.55,5.13L2.84,2.31A59.28,59.28,0,0,0,23.6,6.07,50.21,50.21,0,0,0,43,2.3c.43.81,1,1.91,1.34,2.79A83.61,83.61,0,0,1,22.25,8.06Zm43,8.09-3.1,4.44A43.81,43.81,0,0,0,47.34,2.89,37.28,37.28,0,0,1,53.86,4.4C60.77,6.72,64.59,10.67,65.21,16.15ZM43.75,1.53l0-.1a46.54,46.54,0,0,1,5.1.68A42.6,42.6,0,0,0,43.75,1.53Zm5.91-.29A43,43,0,0,1,54,1c5.73,0,9.86,1.3,12.28,3.86L65.66,7.4A51,51,0,0,0,49.66,1.24Z"/></g></g></svg>