<svg xmlns="http://www.w3.org/2000/svg" viewBox="0 0 33.72 44.61"><defs><style>.cls-1{fill:#be1e2d;}</style></defs><title>Asset 92</title><g id="Layer_2" data-name="Layer 2"><g id="Layer_1-2" data-name="Layer 1"><path class="cls-1" d="M13,0,0,37.41l20.71,7.2,13-37.41Zm6.75,41.49-17-5.91.85-2.46,17,5.91Zm1.8-5.15-17-5.91L5.42,28l17,5.91Zm1.79-5.16-17-5.91.86-2.46,17,5.91ZM25.14,26l-17-5.91L9,17.66l17,5.91Zm1.7-4.9-17-5.91.86-2.46,17,5.91Zm1.71-4.9-17-5.91.86-2.46,17,5.91Zm1.7-4.89-17-5.91L14.11,3l17,5.92Z"/></g></g></svg>