<svg xmlns="http://www.w3.org/2000/svg" viewBox="0 0 33.72 44.61"><defs><style>.cls-1{fill:#00a0dc;}</style></defs><title>Asset 105</title><g id="Layer_2" data-name="Layer 2"><g id="Layer_1-2" data-name="Layer 1"><path class="cls-1" d="M0,7.2,13,44.61l20.71-7.2L20.71,0ZM13.1,39l17-5.91L31,35.58,14,41.49Zm-1.79-5.15L28.3,28l.85,2.46-17,5.91Zm-1.8-5.16,17-5.91.85,2.46-17,5.91ZM7.72,23.57l17-5.91.86,2.46L8.58,26ZM6,18.67l17-5.91.86,2.46-17,5.91Zm-1.71-4.9,17-5.91.85,2.46-17,5.91ZM2.61,8.88,19.6,3l.86,2.47-17,5.91Z"/></g></g></svg>