<svg xmlns="http://www.w3.org/2000/svg" viewBox="0 0 73.85 34.69"><defs><style>.cls-1{fill:#00a0dc;}</style></defs><title>Asset 75</title><g id="Layer_2" data-name="Layer 2"><g id="Layer_1-2" data-name="Layer 1"><path class="cls-1" d="M69.81,26c-.07,0-7.54-4.7-10.16-6.73a3.14,3.14,0,0,1-.34-.67,2.49,2.49,0,0,1-.11-.29l-.08-.2c0-.11-.08-.25-.12-.37l-.07-.21A83.37,83.37,0,0,1,56.72,7c0-.17,0-.34-.08-.5l-.06-.44h0l-.25-.38-.18-.25C55.1,4.11,50.77,0,36.92,0,25.09,0,20.21,3,18.38,4.71l-.3.29V5a4.65,4.65,0,0,0-.55.67l-.25.38-.06.44c-.16,1-.34,2.12-.53,3.2-.78,4.35-1.8,8.6-2.48,9.54C11.58,21.28,4.11,25.94,4,26L0,28.5l4.62,1.12c.85.21,20.91,5.07,31.86,5.07h.82c11,0,31.08-4.86,31.93-5.07l4.62-1.12ZM17.9,13.86c.05-.2.09-.41.13-.62.69-3.31,1.15-6.44,1.15-6.44C22.37,2,36.92,2,36.92,2s13.63,0,17.4,4.35a3.79,3.79,0,0,1,.34.45s.4,2.69,1,5.72l0,.21c.23,1.14.49,2.33.77,3.43.22.84.44,1.63.67,2.31a5.56,5.56,0,0,0,1.19,2.29s-14.18,2.76-21.41,2.88-21.42-2.88-21.42-2.88a5.46,5.46,0,0,0,1.18-2.29A42.83,42.83,0,0,0,17.9,13.86Zm19,18.83c-10.72.13-31.8-5-31.8-5s4.88-3,8.22-5.34l1.78.38c.57.12,13.93,2.93,21.4,2.93H37c7.32-.12,21.17-2.8,21.76-2.91l1.85-.36c3.34,2.29,8.18,5.31,8.18,5.31S47.62,32.82,36.89,32.69Z"/></g></g></svg>