<svg xmlns="http://www.w3.org/2000/svg" viewBox="0 0 83.33 137.33"><defs><style>.cls-1{fill:#00a0dc;}</style></defs><title>Asset 72</title><g id="Layer_2" data-name="Layer 2"><g id="Layer_1-2" data-name="Layer 1"><path class="cls-1" d="M37.58,0,0,113.74l22.81,7.6L45,58.09l-5.21,79.24H77.12L83.33,0ZM75.21,135.33H41.88l6-91.73L21.57,118.82l-19-6.34L39,2H80.14l-1,.65C77.35,3.75,62,13.58,60.18,23L60,24l.43.91s7.18,15,9.71,20.18C68.82,49,65.58,59,65.39,62.59c-.23,4.29,6,14.86,8.64,19.2l3.35,5.45ZM80.41,5.12,76.22,80.21S67.81,66.55,68,62.75s5-17.93,5-17.93c-1.78-3.66-10.24-21.28-10.24-21.28C64.41,15.14,80.41,5.12,80.41,5.12Z"/></g></g></svg>