<svg xmlns="http://www.w3.org/2000/svg" viewBox="0 0 115.8 40.2"><defs><style>.cls-1{fill:#fafbfc;}</style></defs><title>Asset 98</title><g id="Layer_2" data-name="Layer 2"><g id="Layer_1-2" data-name="Layer 1"><path class="cls-1" d="M112.22,19l3.58-7.43C108.56-1.71,96.38.29,92.23,1.44V0H0V14.56H92.23V3.62C100.87,14.86,105.1,40.2,105.1,40.2l9.38-11.59a62.53,62.53,0,0,0-7.87-15.79A62.5,62.5,0,0,1,112.22,19Zm.25-7.38-.91,1.89A70.19,70.19,0,0,0,101,3.4,17.46,17.46,0,0,1,112.47,11.6Zm-22.24,1H2V2H90.23ZM106.59,33A101,101,0,0,0,97.48,7.46c7.32,4.33,14.16,19.75,14.16,19.75Z"/></g></g></svg>