<svg xmlns="http://www.w3.org/2000/svg" viewBox="0 0 83.33 137.33"><defs><style>.cls-1{fill:#00a0dc;}</style></defs><title>Asset 71</title><g id="Layer_2" data-name="Layer 2"><g id="Layer_1-2" data-name="Layer 1"><path class="cls-1" d="M0,0,6.21,137.33H43.59L38.38,58.09l22.15,63.25,22.8-7.6L45.75,0ZM6,87.24,9.3,81.79c2.68-4.34,8.88-14.91,8.64-19.2C17.75,59,14.51,49,13.21,45c2.52-5.23,9.7-20.18,9.7-20.18l.43-.91-.19-1C21.31,13.58,6,3.75,4.24,2.65L3.2,2H44.31l36.5,110.48-19.05,6.34L35.42,43.6l6,91.73H8.12Zm14.62-63.7S12.11,41.16,10.33,44.82c0,0,4.78,14.14,5,17.93s-8.2,17.46-8.2,17.46L2.93,5.12S18.93,15.14,20.57,23.54Z"/></g></g></svg>