<svg xmlns="http://www.w3.org/2000/svg" viewBox="0 0 26.3 27.56"><defs><style>.cls-1{fill:#e8b720;}</style></defs><title>Asset 79</title><g id="Layer_2" data-name="Layer 2"><g id="Layer_1-2" data-name="Layer 1"><path class="cls-1" d="M26.28,13.75A19.64,19.64,0,0,0,20.06.62L19.33,0l-14,2.59L4.9,3c-.25.23-6.15,5.7-4.66,13.2A14.54,14.54,0,0,0,13.77,27.56h0a9.27,9.27,0,0,0,1.41-.1C21,26.62,26.69,22.05,26.28,13.75ZM14.9,25.48c-4.79.7-11.41-3.23-12.7-9.7S6.25,4.45,6.25,4.45L18.76,2.14a17.66,17.66,0,0,1,5.52,11.71C24.65,21.17,19.68,24.79,14.9,25.48Z"/></g></g></svg>