<svg xmlns="http://www.w3.org/2000/svg" viewBox="0 0 26.3 27.56"><defs><style>.cls-1{fill:#e8b720;}</style></defs><title>Asset 80</title><g id="Layer_2" data-name="Layer 2"><g id="Layer_1-2" data-name="Layer 1"><path class="cls-1" d="M21.39,3,21,2.59,7,0,6.24.62A19.6,19.6,0,0,0,0,13.75c-.42,8.3,5.27,12.87,11.09,13.71a9.5,9.5,0,0,0,1.42.1A14.54,14.54,0,0,0,26.06,16.17C27.55,8.67,21.65,3.2,21.39,3ZM24.1,15.78c-1.29,6.47-7.92,10.4-12.7,9.7S1.65,21.17,2,13.85A17.66,17.66,0,0,1,7.54,2.14L20.05,4.45S25.38,9.3,24.1,15.78Z"/></g></g></svg>