<svg xmlns="http://www.w3.org/2000/svg" viewBox="0 0 329.06 630.18"><defs><style>.cls-1{fill:#231f20;}.cls-10,.cls-11,.cls-12,.cls-13,.cls-14,.cls-15,.cls-2,.cls-3,.cls-4,.cls-5,.cls-6,.cls-7,.cls-8,.cls-9{fill:none;stroke-miterlimit:10;}.cls-2,.cls-9{stroke:#27aae1;}.cls-2,.cls-3,.cls-4{stroke-width:2px;}.cls-3{stroke:#f26522;}.cls-11,.cls-4{stroke:#ed1c24;}.cls-5{stroke:#0076a1;}.cls-10,.cls-11,.cls-12,.cls-13,.cls-14,.cls-15,.cls-5,.cls-6,.cls-7,.cls-8,.cls-9{stroke-width:4px;}.cls-6{stroke:#f7941d;}.cls-7{stroke:#f15a29;}.cls-8{stroke:#8dc63f;}.cls-10{stroke:#fbb040;}.cls-12{stroke:#00a79d;}.cls-13{stroke:#939598;}.cls-14{stroke:#d1d3d4;}.cls-15{stroke:#39b54a;}</style></defs><title>hat1Asset 5</title><g id="Layer_2" data-name="Layer 2"><g id="Layer_1-2" data-name="Layer 1"><path class="cls-1" d="M165.46,417.62s51.13,0,57.73-16-16.5-178.56-20.62-201.3-37.11-27.79-37.11-27.79-33,5.05-37.11,27.79-27.21,185.29-20.61,201.3S165.46,417.62,165.46,417.62Z"/><path class="cls-1" d="M165.47,446.64l35.71,129.77h53.6c7.13-43.06-18.08-179.13-18.08-179.13h-143S69,533.35,76.17,576.41h53.6Z"/><ellipse class="cls-1" cx="165.76" cy="119.09" rx="49.7" ry="59.95"/><path class="cls-2" d="M181.34,83.78s15.44,4.46,11.52,12.39-10.14,3.72-14.29,11.9,5.25,10.16,7.47,15.61-.36,44.13-20.28,44.13-22.5-38.67-20.28-44.13,11.61-7.43,7.46-15.61-10.37-4-14.29-11.9,11.53-12.39,11.53-12.39"/><path class="cls-3" d="M204.85,98.66s-11.29.25-17.06,7.19S190.1,118,190.33,122s3,50.57-24.57,50.07c-27.53.5-24.8-46.1-24.57-50.07s8.3-9.17,2.53-16.11-17.06-7.19-17.06-7.19"/><path class="cls-4" d="M196,117.56s10.75,1.73,12.1-6.65-10.39-9.54-14.61-5.78,3.31,14.73,3.31,20.66-.81,49.59-31.05,49.59-31.06-43.66-31.06-49.59,7.53-16.9,3.31-20.66-15.95-2.6-14.6,5.78,12.1,6.65,12.1,6.65"/><path class="cls-5" d="M165.47,446.64l35.71,129.77h53.6c7.13-43.06-18.08-179.13-18.08-179.13h-143S69,533.35,76.17,576.41h53.6Z"/><path class="cls-6" d="M205,571.41,165.47,427.8,126,571.41H80.54C76.18,530.29,94,424.46,97.9,402.28H232.52c3.95,22.14,22.22,128,17.89,169.13Z"/><path class="cls-7" d="M120.71,183.34S53.63,380.57,107.19,395.81s57.5,0,57.5,0,2.24-185.58-3-197.18S120.71,183.34,120.71,183.34Z"/><path class="cls-7" d="M210.8,183.34s-35.78,3.69-41,15.29-3,197.18-3,197.18,3.94,15.24,57.5,0S210.8,183.34,210.8,183.34Z"/><path class="cls-8" d="M122.94,175.5s36.51,7.18,37.14,13.63S158.82,207,154.41,207s-30.84-9.34-41.54-15.73A15.57,15.57,0,0,1,122.94,175.5Z"/><path class="cls-8" d="M160.08,189.13V397.7"/><path class="cls-8" d="M208.57,175.5s-36.5,7.18-37.13,13.63S172.7,207,177.1,207s30.84-9.34,41.54-15.73A15.57,15.57,0,0,0,208.57,175.5Z"/><path class="cls-8" d="M171.44,189.13V397.7"/><path class="cls-1" d="M139.39,177.67s-22,1.7-30.38,9.66-46.35,22.16-52.86,23.29S11.4,392.9,10.86,404.83l33,5.63L81.63,266.31s-5.42,94.32,0,109.1-4.88,22.16-4.88,22.16,46.61,18.18,48.77,11.36-1.08-40.91,3.8-47.16-7.59-96.6-1.09-114.78S139.39,177.67,139.39,177.67Z"/><path class="cls-1" d="M90.09,583.8h32.33v44.38H35.35s-3.79-34.8,25.85-31C72.79,598.62,90.09,583.8,90.09,583.8Z"/><path class="cls-1" d="M244.77,583.8H212.44v44.38H299.5s3.8-34.8-25.85-31C262.07,598.62,244.77,583.8,244.77,583.8Z"/><path class="cls-1" d="M90.09,583.8h32.33v44.38H35.35s-3.79-34.8,25.85-31C72.79,598.62,90.09,583.8,90.09,583.8Z"/><path class="cls-1" d="M244.77,583.8H212.44v44.38H299.5s3.8-34.8-25.85-31C262.07,598.62,244.77,583.8,244.77,583.8Z"/><path class="cls-1" d="M190.47,177.67s22,1.7,30.38,9.66,46.36,22.16,52.86,23.29S318.46,392.9,319,404.83l-33,5.63L248.24,266.31s5.42,94.32,0,109.1,4.88,22.16,4.88,22.16-46.61,18.18-48.78,11.36,1.08-40.91-3.8-47.16,7.59-96.6,1.09-114.78S190.47,177.67,190.47,177.67Z"/><path class="cls-9" d="M139.92,177.67s-22,1.7-30.38,9.66-46.35,22.16-52.86,23.29S11.94,392.9,11.39,404.83l33,5.63L82.16,266.31s-5.42,94.32,0,109.1-4.88,22.16-4.88,22.16,46.61,18.18,48.78,11.36S125,368,129.85,361.77s-7.59-96.6-1.09-114.78S139.92,177.67,139.92,177.67Z"/><path class="cls-10" d="M121.61,405.45c-7.47-.23-24.94-6.06-36-10.09,2.89-5.05,4.6-12.48,1.23-21.67-3.69-10.06-1.77-71,.3-107.1L77.32,265,40.72,404.76,17,400.71c2.1-12.95,9.62-50.3,18.68-91.3,13.41-60.64,21.08-88.19,23.91-94.33,10.72-2.85,44.8-16,53.42-24.12,4.34-4.1,14.25-6.46,21.35-7.58-1.46,14.05-5.37,48.21-10.27,61.92-3.63,10.15-2.24,35.86.13,71.07,1.15,17.18,2.58,38.49,1.39,42.77-3.41,5-3.66,15.52-3.66,32.05C121.92,396.2,121.92,402.18,121.61,405.45Z"/><path class="cls-1" d="M12.41,410.46l23.52,4s10,8.31,7.6,19.39-14.87,17.81-23.86,16.63S1.34,443.05,2,430.52,12.41,410.46,12.41,410.46Z"/><path class="cls-11" d="M12.41,410.46l23.52,4s10,8.31,7.6,19.39-14.87,17.81-23.86,16.63S1.34,443.05,2,430.52,12.41,410.46,12.41,410.46Z"/><path class="cls-1" d="M316.65,410.46l-23.51,4s-10,8.31-7.61,19.39,14.87,17.81,23.86,16.63,18.33-7.39,17.64-19.92S316.65,410.46,316.65,410.46Z"/><path class="cls-11" d="M316.65,410.46l-23.51,4s-10,8.31-7.61,19.39,14.87,17.81,23.86,16.63,18.33-7.39,17.64-19.92S316.65,410.46,316.65,410.46Z"/><path class="cls-12" d="M131.71,188.52s-23.35,13.59-25.95,21.2,13,38.3,13,38.3-16.14,24.18-13.26,30.69,18.45,26,18.45,26"/><path class="cls-9" d="M190.47,176.56s22,1.71,30.38,9.66,46.36,22.16,52.86,23.3S318.46,391.8,319,403.73l-33,5.63L248.24,265.21s5.42,94.32,0,109.09,4.88,22.17,4.88,22.17-46.61,18.18-48.78,11.36,1.08-40.91-3.8-47.16,7.59-96.6,1.09-114.78S190.47,176.56,190.47,176.56Z"/><path class="cls-10" d="M208.78,404.35c-.31-3.27-.31-9.25-.31-14.27,0-16.53-.25-27.08-3.66-32.05-1.19-4.28.24-25.59,1.4-42.77,2.36-35.21,3.75-60.92.13-71.06-4.91-13.72-8.82-47.88-10.28-61.92,7.11,1.12,17,3.47,21.36,7.58C226,198,260.11,211.13,270.83,214c2.83,6.13,10.5,33.69,23.91,94.33,9.07,41,16.58,78.34,18.68,91.3l-23.75,4.05-36.6-139.72-9.82,1.55c2.07,36.07,4,97,.29,107.09-3.37,9.2-1.65,16.62,1.23,21.68C233.72,398.29,216.25,404.12,208.78,404.35Z"/><path class="cls-13" d="M90.09,583.8h32.33v44.38H35.35s-3.79-34.8,25.85-31C72.79,598.62,90.09,583.8,90.09,583.8Z"/><path class="cls-14" d="M40.21,623.18c.13-4.73,1.08-12.16,5.31-16.87,2.7-3,6.42-4.45,11.38-4.45a29.78,29.78,0,0,1,3.67.25,19.54,19.54,0,0,0,2.32.14c11.2,0,24.46-9.8,29-13.45h25.54v34.38Z"/><path class="cls-12" d="M199.15,188.52s23.35,13.59,25.95,21.2-13,38.3-13,38.3,16.15,24.18,13.27,30.69-18.45,26-18.45,26"/><path class="cls-13" d="M244.77,583.8H212.44v44.38H299.5s3.8-34.8-25.85-31C262.07,598.62,244.77,583.8,244.77,583.8Z"/><path class="cls-14" d="M217.44,623.18V588.8H243c4.54,3.65,17.8,13.45,29,13.45a19.24,19.24,0,0,0,2.31-.14,29.94,29.94,0,0,1,3.68-.25c5,0,8.7,1.47,11.4,4.47,4.19,4.68,5.13,12.12,5.27,16.85Z"/><path class="cls-1" d="M246.24,49.24C243.78,41.86,205.43,36,205.43,36s-1-17-5-25.83S166.64,2,166.35,2s-30-.69-34,8.12-5,25.83-5,25.83-38.35,5.9-40.81,13.28,79.31,6.65,79.89,6.64S248.68,56.59,246.24,49.24Z"/><path class="cls-7" d="M246.24,49.24C243.78,41.86,205.43,36,205.43,36s-1-17-5-25.83S166.64,2,166.35,2s-30-.69-34,8.12-5,25.83-5,25.83-38.35,5.9-40.81,13.28,79.31,6.65,79.89,6.64S248.68,56.59,246.24,49.24Z"/><path class="cls-6" d="M172.43,50.9c-3.67,0-5.92,0-6,0s-2.46,0-6.12,0c-37.3,0-55-1.48-63.28-2.7,7-2.56,19-5.45,31-7.3l4-.61.24-4c.27-4.47,1.62-17.5,4.6-24.06.47-1,6.9-5.2,27.82-5.2H168c17.36,0,26.86,3.11,27.82,5.2,3,6.56,4.33,19.59,4.6,24.06l.24,4,4,.62c12,1.85,24,4.74,31,7.3-8.27,1.22-26,2.7-63.27,2.7Z"/><polyline class="cls-15" points="25.32 372.35 18.89 400.29 39.49 403.44 46.57 376.81 32.01 374.05 28.21 392.42 34.77 393.47"/><polyline class="cls-15" points="304.72 371.19 311.15 399.13 290.56 402.28 283.47 375.65 298.03 372.9 301.84 391.26 295.28 392.31"/></g></g></svg>