<svg xmlns="http://www.w3.org/2000/svg" viewBox="0 0 70.84 111.56"><defs><style>.cls-1,.cls-2,.cls-3{fill:none;stroke-miterlimit:10;stroke-width:3px;}.cls-1{stroke:#f15a29;}.cls-2{stroke:#ed1c24;}.cls-3{stroke:#7f3f98;}</style></defs><title>Asset 65</title><g id="Layer_2" data-name="Layer 2"><g id="Layer_1-2" data-name="Layer 1"><path class="cls-1" d="M45.66,60.48s-9.87-6.25-1.06-13.76,7.89-13,9-14.7,7.74-5,9-3.28,1.21,10.48,2.88,13.6,5.17,11.14,3.5,12.45-12.64,3.66-13.76,5.69S45.66,60.48,45.66,60.48Z"/><path class="cls-2" d="M43.36,55.8s5.18-9.7,11.78-10.17,7.2,3.75,7,5.08-3,6.18-7,6.65-6.17,1.25-10.57,0"/><path class="cls-1" d="M25.18,61.26S35.05,55,26.24,47.5s-7.9-13-9-14.7-7.75-5-9-3.28S7.1,40,5.43,43.12.27,54.26,1.94,55.57s12.63,3.65,13.76,5.69S25.18,61.26,25.18,61.26Z"/><path class="cls-2" d="M27.48,56.57S22.29,46.88,15.7,46.41s-7.2,3.75-7,5.08,3,6.18,7,6.64,6.16,1.26,10.57,0"/><path class="cls-1" d="M60,87.14s2-14.15-1.18-17.06-10-1.36-9.64,2.33.59,9.11-7.09,9.3c0,0-3.65.13-5.45.13s-5.46-.13-5.46-.13c-7.67-.19-7.48-5.62-7.08-9.3s-6.49-5.24-9.64-2.33-1.18,17.06-1.18,17.06,10.94,4.2,11.37,7-9.41,4-9.41,6.94,13.87,9.58,21.4,9c7.53.58,21.39-6,21.39-9s-9.84-4.19-9.41-6.94S60,87.14,60,87.14Z"/><path class="cls-2" d="M24.66,105.9S24.85,92.82,33.45,93s12.9-1.41,14.27,12.88"/><path class="cls-2" d="M29,95.9s7.13,7,14.38,0"/><path class="cls-3" d="M29.78.53S27.3,7.16,27.37,11.41s2.49,12.44,2.41,14.87,3.09,12.25,3.32,18.54a55.34,55.34,0,0,1,0,7.77"/><path class="cls-3" d="M41.33.53s2.48,6.63,2.41,10.88-2.49,12.44-2.41,14.87S38.24,38.53,38,44.82a55.34,55.34,0,0,0,0,7.77"/></g></g></svg>