<svg xmlns="http://www.w3.org/2000/svg" viewBox="0 0 140.51 47.64"><defs><style>.cls-1{fill:none;stroke:#ed1588;stroke-miterlimit:10;stroke-width:4px;}</style></defs><title>Asset 62</title><g id="Layer_2" data-name="Layer 2"><g id="Layer_1-2" data-name="Layer 1"><path class="cls-1" d="M75.76,45.64c-3.32,0-5.35,0-5.46,0s-2.23,0-5.55,0C31,45.64,14.94,44.17,7.44,43c6.37-2.54,17.22-5.41,28.11-7.25l3.61-.61.22-4c.25-4.45,1.47-17.4,4.17-23.92C44,6.15,49.8,2,68.74,2h3C87.49,2,96.1,5.09,97,7.17c2.7,6.52,3.93,19.47,4.17,23.92l.22,4,3.61.61c10.89,1.84,21.74,4.72,28.11,7.25-7.5,1.22-23.54,2.69-57.3,2.69Z"/></g></g></svg>