<svg xmlns="http://www.w3.org/2000/svg" viewBox="0 0 41.84 184.58"><defs><style>.cls-1{fill:none;stroke:#ed1c24;stroke-miterlimit:10;stroke-width:4px;}</style></defs><title>Asset 26</title><g id="Layer_2" data-name="Layer 2"><g id="Layer_1-2" data-name="Layer 1"><path class="cls-1" d="M11.92,182.49c-.24-2.69-.24-7.54-.24-11.61,0-13.38-.19-21.9-2.77-25.88-.93-3.4.16-20.79,1.05-34.79,1.79-28.51,2.85-49.32.11-57.5C6.33,41.56,3.35,13.78,2.24,2.41c5.33.92,12.61,2.8,15.81,6,3.59,3.61,12.14,8,19.49,11.3l.18,50v.1c1.64,30.43,3.05,78.68.21,86.92-2.73,7.94-1.09,13.81,1,17.55C30.68,177.55,17.66,182.19,11.92,182.49Z"/></g></g></svg>