<svg xmlns="http://www.w3.org/2000/svg" viewBox="0 0 41.84 184.58"><defs><style>.cls-1{fill:none;stroke:#ed1c24;stroke-miterlimit:10;stroke-width:4px;}</style></defs><title>Asset 25</title><g id="Layer_2" data-name="Layer 2"><g id="Layer_1-2" data-name="Layer 1"><path class="cls-1" d="M29.92,182.49c.24-2.69.24-7.54.24-11.61,0-13.38.19-21.9,2.76-25.88.94-3.4-.16-20.79-1-34.79-1.8-28.51-2.86-49.32-.11-57.5,3.74-11.15,6.72-38.93,7.82-50.3-5.33.92-12.6,2.8-15.81,6-3.58,3.61-12.14,8-19.49,11.3l-.17,50v.1c-1.63,30.43-3,78.68-.21,86.92,2.73,7.94,1.1,13.81-1,17.55C11.15,177.55,24.18,182.19,29.92,182.49Z"/></g></g></svg>